{
  "accessors": [
    {
      "bufferView": 0,
      "componentType": 5123,
      "count": 44982,
      "type": "SCALAR"
    },
    {
      "bufferView": 1,
      "componentType": 5126,
      "count": 15423,
      "max": [
        0.1922716498374939,
        1.388545036315918,
        0.9999056458473206
      ],
      "min": [
        -0.24529170989990234,
        0,
        -1.003279209136963
      ],
      "type": "VEC3"
    },
    {
      "bufferView": 2,
      "componentType": 5126,
      "count": 15423,
      "type": "VEC3"
    },
    {
      "bufferView": 3,
      "componentType": 5126,
      "count": 15423,
      "type": "VEC2"
    }
  ],
  "asset": {
    "minVersion": "2.0",
    "version": "2.0"
  },
  "bufferViews": [
    {
      "buffer": 0,
      "byteLength": 89964,
      "target": 34963
    },
    {
      "buffer": 0,
      "byteLength": 185076,
      "byteOffset": 89964,
      "target": 34962
    },
    {
      "buffer": 0,
      "byteLength": 185076,
      "byteOffset": 275040,
      "target": 34962
    },
    {
      "buffer": 0,
      "byteLength": 123384,
      "byteOffset": 460116,
      "target": 34962
    }
  ],
  "buffers": [
    {
      "byteLength": 583500,
      "uri": "data:application/gltf-buffer;base64,"
    }
  ],
  "images": [
    {
      "mimeType": "image/jpeg",
      "name": "Image_0",
      "uri": "e8e5d87c0760cfcd03b65b8387e45767.jpg"
    }
  ],
  "materials": [
    {
      "doubleSided": true,
      "name": "Material_0.002",
      "pbrMetallicRoughness": {
        "baseColorTexture": {
          "index": 0
        },
        "metallicFactor": 0,
        "roughnessFactor": 0.800000011920929
      }
    }
  ],
  "meshes": [
    {
      "name": "Mesh1.001",
      "primitives": [
        {
          "attributes": {
            "NORMAL": 2,
            "POSITION": 1,
            "TEXCOORD_0": 3
          },
          "indices": 0,
          "material": 0
        }
      ]
    }
  ],
  "nodes": [
    {
      "extras": {
        "meta_spatial": {
          "entity_id": "Mesh1.0"
        }
      },
      "mesh": 0,
      "name": "Mesh1.0"
    }
  ],
  "samplers": [
    {
      "magFilter": 9729,
      "minFilter": 9987,
      "name": "sampler0"
    }
  ],
  "scene": 0,
  "scenes": [
    {
      "nodes": [
        0
      ]
    }
  ],
  "textures": [
    {
      "name": "texture1",
      "sampler": 0,
      "source": 0
    }
  ]
}