{
  "accessors": [
    {
      "bufferView": 0,
      "componentType": 5123,
      "count": 44973,
      "type": "SCALAR"
    },
    {
      "bufferView": 1,
      "componentType": 5126,
      "count": 11144,
      "max": [
        0.09530878812074661,
        1.3838701248168945,
        1.0022903680801392
      ],
      "min": [
        -0.054544441401958466,
        0,
        -1.0041552782058716
      ],
      "type": "VEC3"
    },
    {
      "bufferView": 2,
      "componentType": 5126,
      "count": 11144,
      "type": "VEC3"
    },
    {
      "bufferView": 3,
      "componentType": 5126,
      "count": 11144,
      "type": "VEC2"
    }
  ],
  "asset": {
    "minVersion": "2.0",
    "version": "2.0"
  },
  "bufferViews": [
    {
      "buffer": 0,
      "byteLength": 89946,
      "target": 34963
    },
    {
      "buffer": 0,
      "byteLength": 133728,
      "byteOffset": 89948,
      "target": 34962
    },
    {
      "buffer": 0,
      "byteLength": 133728,
      "byteOffset": 223676,
      "target": 34962
    },
    {
      "buffer": 0,
      "byteLength": 89152,
      "byteOffset": 357404,
      "target": 34962
    }
  ],
  "buffers": [
    {
      "byteLength": 446556,
      "uri": "data:application/gltf-buffer;base64,"
    }
  ],
  "images": [
    {
      "mimeType": "image/jpeg",
      "name": "Image_0",
      "uri": "10f650cd3faee6c6bcf3d548058ec22e.jpg"
    }
  ],
  "materials": [
    {
      "doubleSided": true,
      "name": "Material_0.001",
      "pbrMetallicRoughness": {
        "baseColorTexture": {
          "index": 0
        },
        "metallicFactor": 0,
        "roughnessFactor": 0.800000011920929
      }
    }
  ],
  "meshes": [
    {
      "name": "Mesh1",
      "primitives": [
        {
          "attributes": {
            "NORMAL": 2,
            "POSITION": 1,
            "TEXCOORD_0": 3
          },
          "indices": 0,
          "material": 0
        }
      ]
    }
  ],
  "nodes": [
    {
      "extras": {
        "meta_spatial": {
          "entity_id": "Mesh1.0"
        }
      },
      "mesh": 0,
      "name": "Mesh1.0"
    }
  ],
  "samplers": [
    {
      "magFilter": 9729,
      "minFilter": 9987,
      "name": "sampler0"
    }
  ],
  "scene": 0,
  "scenes": [
    {
      "nodes": [
        0
      ]
    }
  ],
  "textures": [
    {
      "name": "texture1",
      "sampler": 0,
      "source": 0
    }
  ]
}