{
  "accessors": [
    {
      "bufferView": 0,
      "componentType": 5123,
      "count": 45000,
      "type": "SCALAR"
    },
    {
      "bufferView": 1,
      "componentType": 5126,
      "count": 12225,
      "max": [
        0.2952389121055603,
        2.003249406814575,
        0.22627441585063934
      ],
      "min": [
        -0.3151615262031555,
        0,
        -0.21952421963214874
      ],
      "type": "VEC3"
    },
    {
      "bufferView": 2,
      "componentType": 5126,
      "count": 12225,
      "type": "VEC3"
    },
    {
      "bufferView": 3,
      "componentType": 5126,
      "count": 12225,
      "type": "VEC2"
    }
  ],
  "asset": {
    "minVersion": "2.0",
    "version": "2.0"
  },
  "bufferViews": [
    {
      "buffer": 0,
      "byteLength": 90000,
      "target": 34963
    },
    {
      "buffer": 0,
      "byteLength": 146700,
      "byteOffset": 90000,
      "target": 34962
    },
    {
      "buffer": 0,
      "byteLength": 146700,
      "byteOffset": 236700,
      "target": 34962
    },
    {
      "buffer": 0,
      "byteLength": 97800,
      "byteOffset": 383400,
      "target": 34962
    }
  ],
  "buffers": [
    {
      "byteLength": 481200,
      "uri": "data:application/gltf-buffer;base64,"
    }
  ],
  "images": [
    {
      "mimeType": "image/jpeg",
      "name": "Image_0",
      "uri": "e1159d19ca041f45dafb64f3c167a52b.jpg"
    }
  ],
  "materials": [
    {
      "doubleSided": true,
      "name": "Material_0.009",
      "pbrMetallicRoughness": {
        "baseColorTexture": {
          "index": 0
        },
        "metallicFactor": 0,
        "roughnessFactor": 0.800000011920929
      }
    }
  ],
  "meshes": [
    {
      "name": "Mesh1.005",
      "primitives": [
        {
          "attributes": {
            "NORMAL": 2,
            "POSITION": 1,
            "TEXCOORD_0": 3
          },
          "indices": 0,
          "material": 0
        }
      ]
    }
  ],
  "nodes": [
    {
      "extras": {
        "meta_spatial": {
          "entity_id": "Mesh1.0"
        }
      },
      "mesh": 0,
      "name": "Mesh1.0"
    }
  ],
  "samplers": [
    {
      "magFilter": 9729,
      "minFilter": 9987,
      "name": "sampler0"
    }
  ],
  "scene": 0,
  "scenes": [
    {
      "nodes": [
        0
      ]
    }
  ],
  "textures": [
    {
      "name": "texture1",
      "sampler": 0,
      "source": 0
    }
  ]
}