{
  "accessors": [
    {
      "bufferView": 0,
      "componentType": 5123,
      "count": 44997,
      "type": "SCALAR"
    },
    {
      "bufferView": 1,
      "componentType": 5126,
      "count": 9323,
      "max": [
        0.9967774748802185,
        1.033973217010498,
        0.5792786478996277
      ],
      "min": [
        -1.0064951181411743,
        0,
        -0.5865570306777954
      ],
      "type": "VEC3"
    },
    {
      "bufferView": 2,
      "componentType": 5126,
      "count": 9323,
      "type": "VEC3"
    },
    {
      "bufferView": 3,
      "componentType": 5126,
      "count": 9323,
      "type": "VEC2"
    }
  ],
  "asset": {
    "minVersion": "2.0",
    "version": "2.0"
  },
  "bufferViews": [
    {
      "buffer": 0,
      "byteLength": 89994,
      "target": 34963
    },
    {
      "buffer": 0,
      "byteLength": 111876,
      "byteOffset": 89996,
      "target": 34962
    },
    {
      "buffer": 0,
      "byteLength": 111876,
      "byteOffset": 201872,
      "target": 34962
    },
    {
      "buffer": 0,
      "byteLength": 74584,
      "byteOffset": 313748,
      "target": 34962
    }
  ],
  "buffers": [
    {
      "byteLength": 388332,
      "uri": "data:application/gltf-buffer;base64,"
    }
  ],
  "images": [
    {
      "mimeType": "image/jpeg",
      "name": "Image_0",
      "uri": "507a5acea6f1cc4cb8a80054e620634c.jpg"
    }
  ],
  "materials": [
    {
      "doubleSided": true,
      "name": "Material_0.001",
      "pbrMetallicRoughness": {
        "baseColorTexture": {
          "index": 0
        },
        "metallicFactor": 0,
        "roughnessFactor": 0.800000011920929
      }
    }
  ],
  "meshes": [
    {
      "name": "Mesh1",
      "primitives": [
        {
          "attributes": {
            "NORMAL": 2,
            "POSITION": 1,
            "TEXCOORD_0": 3
          },
          "indices": 0,
          "material": 0
        }
      ]
    }
  ],
  "nodes": [
    {
      "extras": {
        "meta_spatial": {
          "entity_id": "Mesh11"
        }
      },
      "mesh": 0,
      "name": "Mesh1"
    }
  ],
  "samplers": [
    {
      "magFilter": 9729,
      "minFilter": 9987,
      "name": "sampler0"
    }
  ],
  "scene": 0,
  "scenes": [
    {
      "nodes": [
        0
      ]
    }
  ],
  "textures": [
    {
      "name": "texture1",
      "sampler": 0,
      "source": 0
    }
  ]
}