{
  "accessors": [
    {
      "bufferView": 0,
      "componentType": 5123,
      "count": 45000,
      "type": "SCALAR"
    },
    {
      "bufferView": 1,
      "componentType": 5126,
      "count": 7909,
      "max": [
        1.0022382736206055,
        1.4121010303497314,
        0.1842854768037796
      ],
      "min": [
        -1.0034782886505127,
        0,
        -0.18422172963619232
      ],
      "type": "VEC3"
    },
    {
      "bufferView": 2,
      "componentType": 5126,
      "count": 7909,
      "type": "VEC3"
    },
    {
      "bufferView": 3,
      "componentType": 5126,
      "count": 7909,
      "type": "VEC2"
    }
  ],
  "asset": {
    "minVersion": "2.0",
    "version": "2.0"
  },
  "bufferViews": [
    {
      "buffer": 0,
      "byteLength": 90000,
      "target": 34963
    },
    {
      "buffer": 0,
      "byteLength": 94908,
      "byteOffset": 90000,
      "target": 34962
    },
    {
      "buffer": 0,
      "byteLength": 94908,
      "byteOffset": 184908,
      "target": 34962
    },
    {
      "buffer": 0,
      "byteLength": 63272,
      "byteOffset": 279816,
      "target": 34962
    }
  ],
  "buffers": [
    {
      "byteLength": 343088,
      "uri": "data:application/gltf-buffer;base64,"
    }
  ],
  "images": [
    {
      "mimeType": "image/jpeg",
      "name": "Image_0",
      "uri": "7c5a363416373c5b562a382b8e9e56f9.jpg"
    }
  ],
  "materials": [
    {
      "doubleSided": true,
      "name": "Material_0.003",
      "pbrMetallicRoughness": {
        "baseColorTexture": {
          "index": 0
        },
        "metallicFactor": 0,
        "roughnessFactor": 0.800000011920929
      }
    }
  ],
  "meshes": [
    {
      "name": "Mesh1.004",
      "primitives": [
        {
          "attributes": {
            "NORMAL": 2,
            "POSITION": 1,
            "TEXCOORD_0": 3
          },
          "indices": 0,
          "material": 0
        }
      ]
    }
  ],
  "nodes": [
    {
      "extras": {
        "meta_spatial": {
          "entity_id": "Mesh1.0"
        }
      },
      "mesh": 0,
      "name": "Mesh1.0"
    }
  ],
  "samplers": [
    {
      "magFilter": 9729,
      "minFilter": 9987,
      "name": "sampler0"
    }
  ],
  "scene": 0,
  "scenes": [
    {
      "nodes": [
        0
      ]
    }
  ],
  "textures": [
    {
      "name": "texture1",
      "sampler": 0,
      "source": 0
    }
  ]
}