{
  "accessors": [
    {
      "bufferView": 0,
      "componentType": 5123,
      "count": 44997,
      "type": "SCALAR"
    },
    {
      "bufferView": 1,
      "componentType": 5126,
      "count": 15444,
      "max": [
        0.9231197834014893,
        2.0059258937835693,
        0.17281553149223328
      ],
      "min": [
        -0.9292776584625244,
        0,
        -0.17415036261081696
      ],
      "type": "VEC3"
    },
    {
      "bufferView": 2,
      "componentType": 5126,
      "count": 15444,
      "type": "VEC3"
    },
    {
      "bufferView": 3,
      "componentType": 5126,
      "count": 15444,
      "type": "VEC2"
    }
  ],
  "asset": {
    "minVersion": "2.0",
    "version": "2.0"
  },
  "bufferViews": [
    {
      "buffer": 0,
      "byteLength": 89994,
      "target": 34963
    },
    {
      "buffer": 0,
      "byteLength": 185328,
      "byteOffset": 89996,
      "target": 34962
    },
    {
      "buffer": 0,
      "byteLength": 185328,
      "byteOffset": 275324,
      "target": 34962
    },
    {
      "buffer": 0,
      "byteLength": 123552,
      "byteOffset": 460652,
      "target": 34962
    }
  ],
  "buffers": [
    {
      "byteLength": 584204,
      "uri": "data:application/gltf-buffer;base64,"
    }
  ],
  "images": [
    {
      "mimeType": "image/jpeg",
      "name": "Image_0",
      "uri": "bcfac97807ce63f61c334066e5c693f2.jpg"
    }
  ],
  "materials": [
    {
      "doubleSided": true,
      "name": "Material_0.001",
      "pbrMetallicRoughness": {
        "baseColorTexture": {
          "index": 0
        },
        "metallicFactor": 0,
        "roughnessFactor": 0.800000011920929
      }
    }
  ],
  "meshes": [
    {
      "name": "Mesh1",
      "primitives": [
        {
          "attributes": {
            "NORMAL": 2,
            "POSITION": 1,
            "TEXCOORD_0": 3
          },
          "indices": 0,
          "material": 0
        }
      ]
    }
  ],
  "nodes": [
    {
      "extras": {
        "meta_spatial": {
          "entity_id": "Mesh11"
        }
      },
      "mesh": 0,
      "name": "Mesh1"
    }
  ],
  "samplers": [
    {
      "magFilter": 9729,
      "minFilter": 9987,
      "name": "sampler0"
    }
  ],
  "scene": 0,
  "scenes": [
    {
      "nodes": [
        0
      ]
    }
  ],
  "textures": [
    {
      "name": "texture1",
      "sampler": 0,
      "source": 0
    }
  ]
}