{
  "accessors": [
    {
      "bufferView": 0,
      "componentType": 5123,
      "count": 44991,
      "type": "SCALAR"
    },
    {
      "bufferView": 1,
      "componentType": 5126,
      "count": 10039,
      "max": [
        0.9929651021957397,
        1.1015957593917847,
        0.7496296167373657
      ],
      "min": [
        -1.002805233001709,
        0,
        -0.7573367357254028
      ],
      "type": "VEC3"
    },
    {
      "bufferView": 2,
      "componentType": 5126,
      "count": 10039,
      "type": "VEC3"
    },
    {
      "bufferView": 3,
      "componentType": 5126,
      "count": 10039,
      "type": "VEC2"
    }
  ],
  "asset": {
    "minVersion": "2.0",
    "version": "2.0"
  },
  "bufferViews": [
    {
      "buffer": 0,
      "byteLength": 89982,
      "target": 34963
    },
    {
      "buffer": 0,
      "byteLength": 120468,
      "byteOffset": 89984,
      "target": 34962
    },
    {
      "buffer": 0,
      "byteLength": 120468,
      "byteOffset": 210452,
      "target": 34962
    },
    {
      "buffer": 0,
      "byteLength": 80312,
      "byteOffset": 330920,
      "target": 34962
    }
  ],
  "buffers": [
    {
      "byteLength": 411232,
      "uri": "data:application/gltf-buffer;base64,"
    }
  ],
  "images": [
    {
      "mimeType": "image/jpeg",
      "name": "Image_0",
      "uri": "64f7eb2877542b94d0ce3d88e205ff36.jpg"
    }
  ],
  "materials": [
    {
      "doubleSided": true,
      "name": "Material_0.002",
      "pbrMetallicRoughness": {
        "baseColorTexture": {
          "index": 0
        },
        "metallicFactor": 0,
        "roughnessFactor": 0.800000011920929
      }
    }
  ],
  "meshes": [
    {
      "name": "Mesh1.001",
      "primitives": [
        {
          "attributes": {
            "NORMAL": 2,
            "POSITION": 1,
            "TEXCOORD_0": 3
          },
          "indices": 0,
          "material": 0
        }
      ]
    }
  ],
  "nodes": [
    {
      "extras": {
        "meta_spatial": {
          "entity_id": "Mesh1.0"
        }
      },
      "mesh": 0,
      "name": "Mesh1.0"
    }
  ],
  "samplers": [
    {
      "magFilter": 9729,
      "minFilter": 9987,
      "name": "sampler0"
    }
  ],
  "scene": 0,
  "scenes": [
    {
      "nodes": [
        0
      ]
    }
  ],
  "textures": [
    {
      "name": "texture1",
      "sampler": 0,
      "source": 0
    }
  ]
}