{
  "accessors": [
    {
      "bufferView": 0,
      "componentType": 5123,
      "count": 44619,
      "type": "SCALAR"
    },
    {
      "bufferView": 1,
      "componentType": 5126,
      "count": 13109,
      "max": [
        1.0030120611190796,
        1.3413960933685303,
        0.191735178232193
      ],
      "min": [
        -1.0083125829696655,
        0,
        -0.1947138011455536
      ],
      "type": "VEC3"
    },
    {
      "bufferView": 2,
      "componentType": 5126,
      "count": 13109,
      "type": "VEC3"
    },
    {
      "bufferView": 3,
      "componentType": 5126,
      "count": 13109,
      "type": "VEC2"
    }
  ],
  "asset": {
    "minVersion": "2.0",
    "version": "2.0"
  },
  "bufferViews": [
    {
      "buffer": 0,
      "byteLength": 89238,
      "target": 34963
    },
    {
      "buffer": 0,
      "byteLength": 157308,
      "byteOffset": 89240,
      "target": 34962
    },
    {
      "buffer": 0,
      "byteLength": 157308,
      "byteOffset": 246548,
      "target": 34962
    },
    {
      "buffer": 0,
      "byteLength": 104872,
      "byteOffset": 403856,
      "target": 34962
    }
  ],
  "buffers": [
    {
      "byteLength": 508728,
      "uri": "data:application/gltf-buffer;base64,"
    }
  ],
  "images": [
    {
      "mimeType": "image/jpeg",
      "name": "Image_0",
      "uri": "9ba7104aa930d75fcd49e6181f12118c.jpg"
    }
  ],
  "materials": [
    {
      "doubleSided": true,
      "name": "Material_0.029",
      "pbrMetallicRoughness": {
        "baseColorTexture": {
          "index": 0
        },
        "metallicFactor": 0,
        "roughnessFactor": 0.800000011920929
      }
    }
  ],
  "meshes": [
    {
      "name": "Mesh1.023",
      "primitives": [
        {
          "attributes": {
            "NORMAL": 2,
            "POSITION": 1,
            "TEXCOORD_0": 3
          },
          "indices": 0,
          "material": 0
        }
      ]
    }
  ],
  "nodes": [
    {
      "extras": {
        "meta_spatial": {
          "entity_id": "Mesh1.0"
        }
      },
      "mesh": 0,
      "name": "Mesh1.0"
    }
  ],
  "samplers": [
    {
      "magFilter": 9729,
      "minFilter": 9987,
      "name": "sampler0"
    }
  ],
  "scene": 0,
  "scenes": [
    {
      "nodes": [
        0
      ]
    }
  ],
  "textures": [
    {
      "name": "texture1",
      "sampler": 0,
      "source": 0
    }
  ]
}