{
  "accessors": [
    {
      "bufferView": 0,
      "componentType": 5123,
      "count": 44973,
      "type": "SCALAR"
    },
    {
      "bufferView": 1,
      "componentType": 5126,
      "count": 10170,
      "max": [
        1.0043978691101074,
        1.4205458164215088,
        0.43956559896469116
      ],
      "min": [
        -1.0037037134170532,
        0,
        -0.4401979446411133
      ],
      "type": "VEC3"
    },
    {
      "bufferView": 2,
      "componentType": 5126,
      "count": 10170,
      "type": "VEC3"
    },
    {
      "bufferView": 3,
      "componentType": 5126,
      "count": 10170,
      "type": "VEC2"
    }
  ],
  "asset": {
    "minVersion": "2.0",
    "version": "2.0"
  },
  "bufferViews": [
    {
      "buffer": 0,
      "byteLength": 89946,
      "target": 34963
    },
    {
      "buffer": 0,
      "byteLength": 122040,
      "byteOffset": 89948,
      "target": 34962
    },
    {
      "buffer": 0,
      "byteLength": 122040,
      "byteOffset": 211988,
      "target": 34962
    },
    {
      "buffer": 0,
      "byteLength": 81360,
      "byteOffset": 334028,
      "target": 34962
    }
  ],
  "buffers": [
    {
      "byteLength": 415388,
      "uri": "data:application/gltf-buffer;base64,"
    }
  ],
  "images": [
    {
      "mimeType": "image/jpeg",
      "name": "Image_0",
      "uri": "e8f9b580346a2a5f580c1bcbe0a77be3.jpg"
    }
  ],
  "materials": [
    {
      "doubleSided": true,
      "name": "Material_0.011",
      "pbrMetallicRoughness": {
        "baseColorTexture": {
          "index": 0
        },
        "metallicFactor": 0,
        "roughnessFactor": 0.800000011920929
      }
    }
  ],
  "meshes": [
    {
      "name": "Mesh1.013",
      "primitives": [
        {
          "attributes": {
            "NORMAL": 2,
            "POSITION": 1,
            "TEXCOORD_0": 3
          },
          "indices": 0,
          "material": 0
        }
      ]
    }
  ],
  "nodes": [
    {
      "extras": {
        "meta_spatial": {
          "entity_id": "Mesh1.0"
        }
      },
      "mesh": 0,
      "name": "Mesh1.0"
    }
  ],
  "samplers": [
    {
      "magFilter": 9729,
      "minFilter": 9987,
      "name": "sampler0"
    }
  ],
  "scene": 0,
  "scenes": [
    {
      "nodes": [
        0
      ]
    }
  ],
  "textures": [
    {
      "name": "texture1",
      "sampler": 0,
      "source": 0
    }
  ]
}