{
  "accessors": [
    {
      "bufferView": 0,
      "componentType": 5123,
      "count": 40974,
      "type": "SCALAR"
    },
    {
      "bufferView": 1,
      "componentType": 5126,
      "count": 14694,
      "max": [
        1.0037227869033813,
        2.0064034461975098,
        0.06875818967819214
      ],
      "min": [
        -1.0044935941696167,
        0,
        -0.06490220874547958
      ],
      "type": "VEC3"
    },
    {
      "bufferView": 2,
      "componentType": 5126,
      "count": 14694,
      "type": "VEC3"
    },
    {
      "bufferView": 3,
      "componentType": 5126,
      "count": 14694,
      "type": "VEC2"
    }
  ],
  "asset": {
    "minVersion": "2.0",
    "version": "2.0"
  },
  "bufferViews": [
    {
      "buffer": 0,
      "byteLength": 81948,
      "target": 34963
    },
    {
      "buffer": 0,
      "byteLength": 176328,
      "byteOffset": 81948,
      "target": 34962
    },
    {
      "buffer": 0,
      "byteLength": 176328,
      "byteOffset": 258276,
      "target": 34962
    },
    {
      "buffer": 0,
      "byteLength": 117552,
      "byteOffset": 434604,
      "target": 34962
    }
  ],
  "buffers": [
    {
      "byteLength": 552156,
      "uri": "data:application/gltf-buffer;base64,"
    }
  ],
  "images": [
    {
      "mimeType": "image/jpeg",
      "name": "Image_0",
      "uri": "1cd6dd9ef70478c3246046a4ffdc5a04.jpg"
    },
    {
      "mimeType": "image/jpeg",
      "name": "Image_1",
      "uri": "704e0c8cd6120f6bd8467ffc36fbc062.jpg"
    },
    {
      "mimeType": "image/jpeg",
      "name": "Image_2",
      "uri": "4d22389e025d2d11c0bc414c231bf6ab.jpg"
    }
  ],
  "materials": [
    {
      "doubleSided": true,
      "name": "Material_0.003",
      "normalTexture": {
        "index": 2
      },
      "pbrMetallicRoughness": {
        "baseColorTexture": {
          "index": 0
        },
        "metallicRoughnessTexture": {
          "index": 1
        }
      }
    }
  ],
  "meshes": [
    {
      "name": "Mesh1.001",
      "primitives": [
        {
          "attributes": {
            "NORMAL": 2,
            "POSITION": 1,
            "TEXCOORD_0": 3
          },
          "indices": 0,
          "material": 0
        }
      ]
    }
  ],
  "nodes": [
    {
      "extras": {
        "meta_spatial": {
          "entity_id": "Mesh1.0"
        }
      },
      "mesh": 0,
      "name": "Mesh1.0"
    }
  ],
  "samplers": [
    {
      "magFilter": 9729,
      "minFilter": 9987,
      "name": "sampler0"
    }
  ],
  "scene": 0,
  "scenes": [
    {
      "nodes": [
        0
      ]
    }
  ],
  "textures": [
    {
      "name": "texture2",
      "sampler": 0,
      "source": 0
    },
    {
      "name": "texture3",
      "sampler": 0,
      "source": 1
    },
    {
      "name": "texture1",
      "sampler": 0,
      "source": 2
    }
  ]
}