{
  "accessors": [
    {
      "bufferView": 0,
      "componentType": 5123,
      "count": 44859,
      "type": "SCALAR"
    },
    {
      "bufferView": 1,
      "componentType": 5126,
      "count": 9185,
      "max": [
        1.0057291984558105,
        0.16040825843811035,
        0.4941537082195282
      ],
      "min": [
        -1.0047093629837036,
        0,
        -0.49390140175819397
      ],
      "type": "VEC3"
    },
    {
      "bufferView": 2,
      "componentType": 5126,
      "count": 9185,
      "type": "VEC3"
    },
    {
      "bufferView": 3,
      "componentType": 5126,
      "count": 9185,
      "type": "VEC2"
    }
  ],
  "asset": {
    "minVersion": "2.0",
    "version": "2.0"
  },
  "bufferViews": [
    {
      "buffer": 0,
      "byteLength": 89718,
      "target": 34963
    },
    {
      "buffer": 0,
      "byteLength": 110220,
      "byteOffset": 89720,
      "target": 34962
    },
    {
      "buffer": 0,
      "byteLength": 110220,
      "byteOffset": 199940,
      "target": 34962
    },
    {
      "buffer": 0,
      "byteLength": 73480,
      "byteOffset": 310160,
      "target": 34962
    }
  ],
  "buffers": [
    {
      "byteLength": 383640,
      "uri": "data:application/gltf-buffer;base64,"
    }
  ],
  "images": [
    {
      "mimeType": "image/jpeg",
      "name": "Image_0",
      "uri": "dcc15cfb83ef17fd8468140137535d6b.jpg"
    }
  ],
  "materials": [
    {
      "doubleSided": true,
      "name": "Material_0.003",
      "pbrMetallicRoughness": {
        "baseColorTexture": {
          "index": 0
        },
        "metallicFactor": 0,
        "roughnessFactor": 0.800000011920929
      }
    }
  ],
  "meshes": [
    {
      "name": "Mesh1.001",
      "primitives": [
        {
          "attributes": {
            "NORMAL": 2,
            "POSITION": 1,
            "TEXCOORD_0": 3
          },
          "indices": 0,
          "material": 0
        }
      ]
    }
  ],
  "nodes": [
    {
      "extras": {
        "meta_spatial": {
          "entity_id": "Mesh1.0"
        }
      },
      "mesh": 0,
      "name": "Mesh1.0"
    }
  ],
  "samplers": [
    {
      "magFilter": 9729,
      "minFilter": 9987,
      "name": "sampler0"
    }
  ],
  "scene": 0,
  "scenes": [
    {
      "nodes": [
        0
      ]
    }
  ],
  "textures": [
    {
      "name": "texture1",
      "sampler": 0,
      "source": 0
    }
  ]
}