{
  "accessors": [
    {
      "bufferView": 0,
      "componentType": 5123,
      "count": 45000,
      "type": "SCALAR"
    },
    {
      "bufferView": 1,
      "componentType": 5126,
      "count": 10204,
      "max": [
        0.6074907779693604,
        2.003239631652832,
        0.654552161693573
      ],
      "min": [
        -0.6097657680511475,
        0,
        -0.6587848663330078
      ],
      "type": "VEC3"
    },
    {
      "bufferView": 2,
      "componentType": 5126,
      "count": 10204,
      "type": "VEC3"
    },
    {
      "bufferView": 3,
      "componentType": 5126,
      "count": 10204,
      "type": "VEC2"
    }
  ],
  "asset": {
    "minVersion": "2.0",
    "version": "2.0"
  },
  "bufferViews": [
    {
      "buffer": 0,
      "byteLength": 90000,
      "target": 34963
    },
    {
      "buffer": 0,
      "byteLength": 122448,
      "byteOffset": 90000,
      "target": 34962
    },
    {
      "buffer": 0,
      "byteLength": 122448,
      "byteOffset": 212448,
      "target": 34962
    },
    {
      "buffer": 0,
      "byteLength": 81632,
      "byteOffset": 334896,
      "target": 34962
    }
  ],
  "buffers": [
    {
      "byteLength": 416528,
      "uri": "data:application/gltf-buffer;base64,"
    }
  ],
  "images": [
    {
      "mimeType": "image/jpeg",
      "name": "Image_0",
      "uri": "430dcad0bdae329b4e8205eef45ae2c7.jpg"
    }
  ],
  "materials": [
    {
      "doubleSided": true,
      "name": "Material_0.001",
      "pbrMetallicRoughness": {
        "baseColorTexture": {
          "index": 0
        },
        "metallicFactor": 0,
        "roughnessFactor": 0.800000011920929
      }
    }
  ],
  "meshes": [
    {
      "name": "Mesh1",
      "primitives": [
        {
          "attributes": {
            "NORMAL": 2,
            "POSITION": 1,
            "TEXCOORD_0": 3
          },
          "indices": 0,
          "material": 0
        }
      ]
    }
  ],
  "nodes": [
    {
      "extras": {
        "meta_spatial": {
          "entity_id": "Mesh1"
        }
      },
      "mesh": 0,
      "name": "Mesh1"
    }
  ],
  "samplers": [
    {
      "magFilter": 9729,
      "minFilter": 9987,
      "name": "sampler0"
    }
  ],
  "scene": 0,
  "scenes": [
    {
      "nodes": [
        0
      ]
    }
  ],
  "textures": [
    {
      "name": "texture1",
      "sampler": 0,
      "source": 0
    }
  ]
}