{
  "accessors": [
    {
      "bufferView": 0,
      "componentType": 5123,
      "count": 44616,
      "type": "SCALAR"
    },
    {
      "bufferView": 1,
      "componentType": 5126,
      "count": 10295,
      "max": [
        0.6856853365898132,
        2.005018472671509,
        0.13607482612133026
      ],
      "min": [
        -0.6934576630592346,
        0,
        -0.14637845754623413
      ],
      "type": "VEC3"
    },
    {
      "bufferView": 2,
      "componentType": 5126,
      "count": 10295,
      "type": "VEC3"
    },
    {
      "bufferView": 3,
      "componentType": 5126,
      "count": 10295,
      "type": "VEC2"
    }
  ],
  "asset": {
    "minVersion": "2.0",
    "version": "2.0"
  },
  "bufferViews": [
    {
      "buffer": 0,
      "byteLength": 89232,
      "target": 34963
    },
    {
      "buffer": 0,
      "byteLength": 123540,
      "byteOffset": 89232,
      "target": 34962
    },
    {
      "buffer": 0,
      "byteLength": 123540,
      "byteOffset": 212772,
      "target": 34962
    },
    {
      "buffer": 0,
      "byteLength": 82360,
      "byteOffset": 336312,
      "target": 34962
    }
  ],
  "buffers": [
    {
      "byteLength": 418672,
      "uri": "data:application/gltf-buffer;base64,"
    }
  ],
  "images": [
    {
      "mimeType": "image/jpeg",
      "name": "Image_0",
      "uri": "5f30307ffa3a4be30448e2ebaca270f4.jpg"
    }
  ],
  "materials": [
    {
      "doubleSided": true,
      "name": "Material_0.003",
      "pbrMetallicRoughness": {
        "baseColorTexture": {
          "index": 0
        },
        "metallicFactor": 0,
        "roughnessFactor": 0.800000011920929
      }
    }
  ],
  "meshes": [
    {
      "name": "Mesh1.002",
      "primitives": [
        {
          "attributes": {
            "NORMAL": 2,
            "POSITION": 1,
            "TEXCOORD_0": 3
          },
          "indices": 0,
          "material": 0
        }
      ]
    }
  ],
  "nodes": [
    {
      "extras": {
        "meta_spatial": {
          "entity_id": "Mesh1.0"
        }
      },
      "mesh": 0,
      "name": "Mesh1.0"
    }
  ],
  "samplers": [
    {
      "magFilter": 9729,
      "minFilter": 9987,
      "name": "sampler0"
    }
  ],
  "scene": 0,
  "scenes": [
    {
      "nodes": [
        0
      ]
    }
  ],
  "textures": [
    {
      "name": "texture1",
      "sampler": 0,
      "source": 0
    }
  ]
}