{
  "accessors": [
    {
      "bufferView": 0,
      "componentType": 5123,
      "count": 768,
      "type": "SCALAR"
    },
    {
      "bufferView": 1,
      "componentType": 5126,
      "count": 256,
      "max": [
        0.1439514458179474,
        0.003938054665923119,
        0.14395153522491455
      ],
      "min": [
        -0.14395157992839813,
        0.000819696462713182,
        -0.14395147562026978
      ],
      "type": "VEC3"
    },
    {
      "bufferView": 2,
      "componentType": 5126,
      "count": 256,
      "type": "VEC3"
    },
    {
      "bufferView": 3,
      "componentType": 5126,
      "count": 256,
      "type": "VEC2"
    },
    {
      "bufferView": 4,
      "componentType": 5123,
      "count": 1224,
      "type": "SCALAR"
    },
    {
      "bufferView": 5,
      "componentType": 5126,
      "count": 408,
      "max": [
        0.04599989950656891,
        0.004757755436003208,
        0.045999929308891296
      ],
      "min": [
        -0.045999955385923386,
        -5.587935447692871E-9,
        -0.045999929308891296
      ],
      "type": "VEC3"
    },
    {
      "bufferView": 6,
      "componentType": 5126,
      "count": 408,
      "type": "VEC3"
    },
    {
      "bufferView": 7,
      "componentType": 5126,
      "count": 408,
      "type": "VEC2"
    },
    {
      "bufferView": 8,
      "componentType": 5123,
      "count": 1680,
      "type": "SCALAR"
    },
    {
      "bufferView": 9,
      "componentType": 5126,
      "count": 432,
      "max": [
        0.1494923084974289,
        0.0047577377408742905,
        0.14949233829975128
      ],
      "min": [
        -0.14949236810207367,
        1.210719347000122E-8,
        -0.14949233829975128
      ],
      "type": "VEC3"
    },
    {
      "bufferView": 10,
      "componentType": 5126,
      "count": 432,
      "type": "VEC3"
    },
    {
      "bufferView": 11,
      "componentType": 5126,
      "count": 432,
      "type": "VEC2"
    }
  ],
  "asset": {
    "minVersion": "2.0",
    "version": "2.0"
  },
  "bufferViews": [
    {
      "buffer": 0,
      "byteLength": 1536,
      "target": 34963
    },
    {
      "buffer": 0,
      "byteLength": 3072,
      "byteOffset": 1536,
      "target": 34962
    },
    {
      "buffer": 0,
      "byteLength": 3072,
      "byteOffset": 4608,
      "target": 34962
    },
    {
      "buffer": 0,
      "byteLength": 2048,
      "byteOffset": 7680,
      "target": 34962
    },
    {
      "buffer": 1,
      "byteLength": 2448,
      "target": 34963
    },
    {
      "buffer": 1,
      "byteLength": 4896,
      "byteOffset": 2448,
      "target": 34962
    },
    {
      "buffer": 1,
      "byteLength": 4896,
      "byteOffset": 7344,
      "target": 34962
    },
    {
      "buffer": 1,
      "byteLength": 3264,
      "byteOffset": 12240,
      "target": 34962
    },
    {
      "buffer": 2,
      "byteLength": 3360,
      "target": 34963
    },
    {
      "buffer": 2,
      "byteLength": 5184,
      "byteOffset": 3360,
      "target": 34962
    },
    {
      "buffer": 2,
      "byteLength": 5184,
      "byteOffset": 8544,
      "target": 34962
    },
    {
      "buffer": 2,
      "byteLength": 3456,
      "byteOffset": 13728,
      "target": 34962
    }
  ],
  "buffers": [
    {
      "byteLength": 9728,
      "uri": "data:application/gltf-buffer;base64,"
    },
    {
      "byteLength": 15504,
      "uri": "data:application/gltf-buffer;base64,"
    },
    {
      "byteLength": 17184,
      "uri": "data:application/gltf-buffer;base64,"
    }
  ],
  "images": [
    {
      "mimeType": "image/png",
      "name": "vinyl_Color",
      "uri": "ec54508ab3cb39a0bdcd0537d0dc09fa.png"
    },
    {
      "mimeType": "image/png",
      "name": "vinyl_Normal",
      "uri": "9849bffb5b771851f79f2c601fa769ce.png"
    }
  ],
  "materials": [
    {
      "doubleSided": true,
      "name": "vinylTracks_mat",
      "normalTexture": {
        "index": 0
      },
      "pbrMetallicRoughness": {
        "baseColorFactor": [
          0.012000000104308128,
          0.012000000104308128,
          0.012000000104308128,
          1
        ],
        "metallicFactor": 0,
        "roughnessFactor": 0.20000000298023224
      }
    },
    {
      "doubleSided": true,
      "name": "vinylEdge_mat",
      "pbrMetallicRoughness": {
        "baseColorFactor": [
          0.012000000104308128,
          0.012000000104308128,
          0.012000000104308128,
          1
        ],
        "metallicFactor": 0,
        "roughnessFactor": 0.20000000298023224
      }
    },
    {
      "doubleSided": true,
      "name": "vinylLabel_mat",
      "pbrMetallicRoughness": {
        "baseColorTexture": {
          "index": 1
        },
        "metallicFactor": 0,
        "roughnessFactor": 0.6000000238418579
      }
    }
  ],
  "meshes": [
    {
      "name": "vinyl_geo",
      "primitives": [
        {
          "attributes": {
            "NORMAL": 2,
            "POSITION": 1,
            "TEXCOORD_0": 3
          },
          "indices": 0,
          "material": 0
        },
        {
          "attributes": {
            "NORMAL": 10,
            "POSITION": 9,
            "TEXCOORD_0": 11
          },
          "indices": 8,
          "material": 1
        },
        {
          "attributes": {
            "NORMAL": 6,
            "POSITION": 5,
            "TEXCOORD_0": 7
          },
          "indices": 4,
          "material": 2
        }
      ]
    }
  ],
  "nodes": [
    {
      "extras": {
        "meta_spatial": {
          "entity_id": "vinyl"
        }
      },
      "mesh": 0,
      "name": "vinyl",
      "translation": [
        -0.03136467933654785,
        0.06641896814107895,
        0.0016369819641113281
      ]
    }
  ],
  "samplers": [
    {
      "magFilter": 9729,
      "minFilter": 9987,
      "name": "sampler0"
    }
  ],
  "scene": 0,
  "scenes": [
    {
      "nodes": [
        0
      ]
    }
  ],
  "textures": [
    {
      "name": "texture1",
      "sampler": 0,
      "source": 1
    },
    {
      "name": "texture2",
      "sampler": 0,
      "source": 0
    }
  ]
}