{
  "accessors": [
    {
      "bufferView": 0,
      "componentType": 5123,
      "count": 44997,
      "type": "SCALAR"
    },
    {
      "bufferView": 1,
      "componentType": 5126,
      "count": 9599,
      "max": [
        0.8871871829032898,
        2.0006282329559326,
        0.9287679195404053
      ],
      "min": [
        -0.8895866870880127,
        0,
        -0.9302939772605896
      ],
      "type": "VEC3"
    },
    {
      "bufferView": 2,
      "componentType": 5126,
      "count": 9599,
      "type": "VEC3"
    },
    {
      "bufferView": 3,
      "componentType": 5126,
      "count": 9599,
      "type": "VEC2"
    }
  ],
  "asset": {
    "minVersion": "2.0",
    "version": "2.0"
  },
  "bufferViews": [
    {
      "buffer": 0,
      "byteLength": 89994,
      "target": 34963
    },
    {
      "buffer": 0,
      "byteLength": 115188,
      "byteOffset": 89996,
      "target": 34962
    },
    {
      "buffer": 0,
      "byteLength": 115188,
      "byteOffset": 205184,
      "target": 34962
    },
    {
      "buffer": 0,
      "byteLength": 76792,
      "byteOffset": 320372,
      "target": 34962
    }
  ],
  "buffers": [
    {
      "byteLength": 397164,
      "uri": "data:application/gltf-buffer;base64,"
    }
  ],
  "images": [
    {
      "mimeType": "image/jpeg",
      "name": "Image_0",
      "uri": "1be225add7077394327c4aa4f29cd46d.jpg"
    }
  ],
  "materials": [
    {
      "doubleSided": true,
      "name": "Material_0.002",
      "pbrMetallicRoughness": {
        "baseColorTexture": {
          "index": 0
        },
        "metallicFactor": 0,
        "roughnessFactor": 0.800000011920929
      }
    }
  ],
  "meshes": [
    {
      "name": "Mesh1.002",
      "primitives": [
        {
          "attributes": {
            "NORMAL": 2,
            "POSITION": 1,
            "TEXCOORD_0": 3
          },
          "indices": 0,
          "material": 0
        }
      ]
    }
  ],
  "nodes": [
    {
      "extras": {
        "meta_spatial": {
          "entity_id": "Mesh1.0"
        }
      },
      "mesh": 0,
      "name": "Mesh1.0"
    }
  ],
  "samplers": [
    {
      "magFilter": 9729,
      "minFilter": 9987,
      "name": "sampler0"
    }
  ],
  "scene": 0,
  "scenes": [
    {
      "nodes": [
        0
      ]
    }
  ],
  "textures": [
    {
      "name": "texture1",
      "sampler": 0,
      "source": 0
    }
  ]
}