{
  "accessors": [
    {
      "bufferView": 2,
      "componentType": 5126,
      "count": 214,
      "max": [
        6.02151346206665,
        50.99999237060547,
        206.6999969482422
      ],
      "min": [
        -5.978501796722412,
        -51.00000762939453,
        0.0
      ],
      "type": "VEC3"
    },
    {
      "bufferView": 2,
      "byteOffset": 2568,
      "componentType": 5126,
      "count": 214,
      "max": [
        1.0,
        1.0,
        1.0
      ],
      "min": [
        -1.0,
        -1.0,
        -1.0
      ],
      "type": "VEC3"
    },
    {
      "bufferView": 3,
      "componentType": 5126,
      "count": 214,
      "max": [
        1.0,
        1.0,
        1.0,
        1.0
      ],
      "min": [
        -1.0,
        -1.0,
        -1.0,
        1.0
      ],
      "type": "VEC4"
    },
    {
      "bufferView": 1,
      "componentType": 5126,
      "count": 214,
      "max": [
        0.985293447971344,
        0.9519807696342468
      ],
      "min": [
        0.005055129528045654,
        0.007860153913497925
      ],
      "type": "VEC2"
    },
    {
      "bufferView": 0,
      "componentType": 5125,
      "count": 330,
      "type": "SCALAR"
    },
    {
      "bufferView": 2,
      "byteOffset": 5136,
      "componentType": 5126,
      "count": 1020,
      "max": [
        60.948211669921875,
        45.312191009521484,
        200.00001525878906
      ],
      "min": [
        0.03314812481403351,
        -27.004457473754883,
        -7.62939453125e-06
      ],
      "type": "VEC3"
    },
    {
      "bufferView": 2,
      "byteOffset": 17376,
      "componentType": 5126,
      "count": 1020,
      "max": [
        0.9944115877151489,
        0.9929743409156799,
        1.0
      ],
      "min": [
        -0.9929991960525513,
        -0.9945389032363892,
        -1.0
      ],
      "type": "VEC3"
    },
    {
      "bufferView": 3,
      "byteOffset": 3424,
      "componentType": 5126,
      "count": 1020,
      "max": [
        0.9349991679191589,
        0.9940567016601563,
        1.0,
        1.0
      ],
      "min": [
        -0.9350000023841858,
        -0.9301697611808777,
        -1.0,
        -1.0
      ],
      "type": "VEC4"
    },
    {
      "bufferView": 1,
      "byteOffset": 1712,
      "componentType": 5126,
      "count": 1020,
      "max": [
        0.9950714707374573,
        0.9919102787971497
      ],
      "min": [
        0.007750980090349913,
        0.00620078481733799
      ],
      "type": "VEC2"
    },
    {
      "bufferView": 0,
      "byteOffset": 1320,
      "componentType": 5125,
      "count": 2514,
      "type": "SCALAR"
    }
  ],
  "asset": {
    "extras": {
      "author": "JMGameDev (https://sketchfab.com/JMGameDev)",
      "license": "CC-BY-4.0 (http://creativecommons.org/licenses/by/4.0/)",
      "source": "https://sketchfab.com/3d-models/office-door-open-40-degrees-0232c631dbda4790b47e64e5fd7208e5",
      "title": "Office Door Open 40 Degrees"
    },
    "generator": "Sketchfab-12.68.0",
    "version": "2.0"
  },
  "bufferViews": [
    {
      "buffer": 0,
      "byteLength": 11376,
      "name": "floatBufferViews",
      "target": 34963
    },
    {
      "buffer": 0,
      "byteLength": 9872,
      "byteOffset": 11376,
      "byteStride": 8,
      "name": "floatBufferViews",
      "target": 34962
    },
    {
      "buffer": 0,
      "byteLength": 29616,
      "byteOffset": 21248,
      "byteStride": 12,
      "name": "floatBufferViews",
      "target": 34962
    },
    {
      "buffer": 0,
      "byteLength": 19744,
      "byteOffset": 50864,
      "byteStride": 16,
      "name": "floatBufferViews",
      "target": 34962
    }
  ],
  "buffers": [
    {
      "byteLength": 70608,
      "uri": "scene.bin"
    }
  ],
  "images": [
    {
      "uri": "textures/Doorway_baseColor.png"
    },
    {
      "uri": "textures/Doorway_metallicRoughness.png"
    },
    {
      "uri": "textures/Doorway_normal.png"
    },
    {
      "uri": "textures/Door_baseColor.png"
    },
    {
      "uri": "textures/Door_metallicRoughness.png"
    },
    {
      "uri": "textures/Door_normal.png"
    }
  ],
  "materials": [
    {
      "doubleSided": true,
      "name": "Doorway",
      "normalTexture": {
        "index": 2
      },
      "occlusionTexture": {
        "index": 1
      },
      "pbrMetallicRoughness": {
        "baseColorTexture": {
          "index": 0
        },
        "metallicRoughnessTexture": {
          "index": 1
        }
      }
    },
    {
      "alphaMode": "BLEND",
      "name": "Door",
      "normalTexture": {
        "index": 5
      },
      "occlusionTexture": {
        "index": 4
      },
      "pbrMetallicRoughness": {
        "baseColorTexture": {
          "index": 3
        },
        "metallicRoughnessTexture": {
          "index": 4
        }
      }
    }
  ],
  "meshes": [
    {
      "name": "SM Office Door_Doorway_0",
      "primitives": [
        {
          "attributes": {
            "NORMAL": 1,
            "POSITION": 0,
            "TANGENT": 2,
            "TEXCOORD_0": 3
          },
          "indices": 4,
          "material": 0,
          "mode": 4
        }
      ]
    },
    {
      "name": "SM Office Door_Door_0",
      "primitives": [
        {
          "attributes": {
            "NORMAL": 6,
            "POSITION": 5,
            "TANGENT": 7,
            "TEXCOORD_0": 8
          },
          "indices": 9,
          "material": 1,
          "mode": 4
        }
      ]
    }
  ],
  "nodes": [
    {
      "children": [
        1
      ],
      "matrix": [
        1.0,
        0.0,
        0.0,
        0.0,
        0.0,
        2.220446049250313e-16,
        -1.0,
        0.0,
        0.0,
        1.0,
        2.220446049250313e-16,
        0.0,
        0.0,
        0.0,
        0.0,
        1.0
      ],
      "name": "Sketchfab_model"
    },
    {
      "children": [
        2
      ],
      "matrix": [
        1.0,
        0.0,
        0.0,
        0.0,
        0.0,
        0.0,
        1.0,
        0.0,
        0.0,
        -1.0,
        0.0,
        0.0,
        0.0,
        0.0,
        0.0,
        1.0
      ],
      "name": "a0a162a101654ea7b63073330a34715b.fbx"
    },
    {
      "children": [
        3
      ],
      "name": "RootNode"
    },
    {
      "children": [
        4,
        5
      ],
      "matrix": [
        -0.9999999999999432,
        -8.742277980456027e-08,
        3.258413983075968e-07,
        0.0,
        3.2584141532943304e-07,
        -1.947071601726691e-07,
        0.9999999999999281,
        0.0,
        -8.742271636090063e-08,
        0.9999999999999774,
        1.9470718859437852e-07,
        0.0,
        0.0,
        0.0,
        0.0,
        1.0
      ],
      "name": "SM Office Door"
    },
    {
      "mesh": 0,
      "name": "SM Office Door_Doorway_0"
    },
    {
      "mesh": 1,
      "name": "SM Office Door_Door_0"
    }
  ],
  "samplers": [
    {
      "magFilter": 9729,
      "minFilter": 9987,
      "wrapS": 10497,
      "wrapT": 10497
    }
  ],
  "scene": 0,
  "scenes": [
    {
      "name": "Sketchfab_Scene",
      "nodes": [
        0
      ]
    }
  ],
  "textures": [
    {
      "sampler": 0,
      "source": 0
    },
    {
      "sampler": 0,
      "source": 1
    },
    {
      "sampler": 0,
      "source": 2
    },
    {
      "sampler": 0,
      "source": 3
    },
    {
      "sampler": 0,
      "source": 4
    },
    {
      "sampler": 0,
      "source": 5
    }
  ]
}
