{
  "accessors": [
    {
      "bufferView": 2,
      "componentType": 5126,
      "count": 1770,
      "max": [
        6.2217278480529785,
        0.9728747606277466,
        -0.0016373127000406384
      ],
      "min": [
        -1.3553358316421509,
        -0.9384926557540894,
        -0.05075715854763985
      ],
      "type": "VEC3"
    },
    {
      "bufferView": 2,
      "byteOffset": 21240,
      "componentType": 5126,
      "count": 1770,
      "max": [
        0.9981335401535034,
        0.9999943971633911,
        1.0
      ],
      "min": [
        -0.9999933242797852,
        -0.9999994039535522,
        -1.0
      ],
      "type": "VEC3"
    },
    {
      "bufferView": 3,
      "componentType": 5126,
      "count": 1770,
      "max": [
        0.8552857041358948,
        0.9999903440475464,
        0.9998925924301147,
        1.0
      ],
      "min": [
        -0.8540496826171875,
        -0.00020120921544730663,
        -0.9998927712440491,
        1.0
      ],
      "type": "VEC4"
    },
    {
      "bufferView": 1,
      "componentType": 5126,
      "count": 1770,
      "max": [
        1.0,
        1.0
      ],
      "min": [
        0.0,
        0.0
      ],
      "type": "VEC2"
    },
    {
      "bufferView": 0,
      "componentType": 5125,
      "count": 9408,
      "type": "SCALAR"
    },
    {
      "bufferView": 2,
      "byteOffset": 42480,
      "componentType": 5126,
      "count": 8326,
      "max": [
        5.080506324768066,
        0.8851713538169861,
        0.05562847852706909
      ],
      "min": [
        -0.9851007461547852,
        -0.9092923402786255,
        -0.1213776096701622
      ],
      "type": "VEC3"
    },
    {
      "bufferView": 2,
      "byteOffset": 142392,
      "componentType": 5126,
      "count": 8326,
      "max": [
        1.0,
        0.999988317489624,
        1.0
      ],
      "min": [
        -0.9993512630462646,
        -0.9999581575393677,
        -0.9999986886978149
      ],
      "type": "VEC3"
    },
    {
      "bufferView": 3,
      "byteOffset": 28320,
      "componentType": 5126,
      "count": 8326,
      "max": [
        0.999994695186615,
        0.9999964833259583,
        0.9999886751174927,
        1.0
      ],
      "min": [
        -0.9999998211860657,
        -0.8759666681289673,
        -0.9999980926513672,
        -1.0
      ],
      "type": "VEC4"
    },
    {
      "bufferView": 1,
      "byteOffset": 14160,
      "componentType": 5126,
      "count": 8326,
      "max": [
        1.0,
        1.0
      ],
      "min": [
        0.0,
        0.0
      ],
      "type": "VEC2"
    },
    {
      "bufferView": 0,
      "byteOffset": 37632,
      "componentType": 5125,
      "count": 45252,
      "type": "SCALAR"
    }
  ],
  "asset": {
    "extras": {
      "author": "DragonerPwr (https://sketchfab.com/dragonerpwr)",
      "license": "CC-BY-4.0 (http://creativecommons.org/licenses/by/4.0/)",
      "source": "https://sketchfab.com/3d-models/bloody-knife-1d4ff3a8e9794f369173b40dbf7c5b37",
      "title": "Bloody Knife"
    },
    "generator": "Sketchfab-12.68.0",
    "version": "2.0"
  },
  "bufferViews": [
    {
      "buffer": 0,
      "byteLength": 218640,
      "name": "floatBufferViews",
      "target": 34963
    },
    {
      "buffer": 0,
      "byteLength": 80768,
      "byteOffset": 218640,
      "byteStride": 8,
      "name": "floatBufferViews",
      "target": 34962
    },
    {
      "buffer": 0,
      "byteLength": 242304,
      "byteOffset": 299408,
      "byteStride": 12,
      "name": "floatBufferViews",
      "target": 34962
    },
    {
      "buffer": 0,
      "byteLength": 161536,
      "byteOffset": 541712,
      "byteStride": 16,
      "name": "floatBufferViews",
      "target": 34962
    }
  ],
  "buffers": [
    {
      "byteLength": 703248,
      "uri": "scene.bin"
    }
  ],
  "images": [
    {
      "uri": "textures/RootNode_baseColor.png"
    },
    {
      "uri": "textures/RootNode_metallicRoughness.png"
    },
    {
      "uri": "textures/RootNode_normal.png"
    },
    {
      "uri": "textures/Raczka_mat_baseColor.png"
    },
    {
      "uri": "textures/Raczka_mat_metallicRoughness.png"
    },
    {
      "uri": "textures/Raczka_mat_normal.png"
    }
  ],
  "materials": [
    {
      "name": "RootNode",
      "normalTexture": {
        "index": 2
      },
      "pbrMetallicRoughness": {
        "baseColorTexture": {
          "index": 0
        },
        "metallicRoughnessTexture": {
          "index": 1
        }
      }
    },
    {
      "doubleSided": true,
      "name": "Raczka_mat",
      "normalTexture": {
        "index": 5,
        "scale": 0.32
      },
      "pbrMetallicRoughness": {
        "baseColorTexture": {
          "index": 3
        },
        "metallicRoughnessTexture": {
          "index": 4
        }
      }
    }
  ],
  "meshes": [
    {
      "name": "Ostrze__0",
      "primitives": [
        {
          "attributes": {
            "NORMAL": 1,
            "POSITION": 0,
            "TANGENT": 2,
            "TEXCOORD_0": 3
          },
          "indices": 4,
          "material": 0,
          "mode": 4
        }
      ]
    },
    {
      "name": "Raczka_Raczka_mat_0",
      "primitives": [
        {
          "attributes": {
            "NORMAL": 6,
            "POSITION": 5,
            "TANGENT": 7,
            "TEXCOORD_0": 8
          },
          "indices": 9,
          "material": 1,
          "mode": 4
        }
      ]
    }
  ],
  "nodes": [
    {
      "children": [
        1
      ],
      "matrix": [
        1.0,
        0.0,
        0.0,
        0.0,
        0.0,
        2.220446049250313e-16,
        -1.0,
        0.0,
        0.0,
        1.0,
        2.220446049250313e-16,
        0.0,
        0.0,
        0.0,
        0.0,
        1.0
      ],
      "name": "Sketchfab_model"
    },
    {
      "children": [
        2
      ],
      "matrix": [
        1.0,
        0.0,
        0.0,
        0.0,
        0.0,
        0.0,
        1.0,
        0.0,
        0.0,
        -1.0,
        0.0,
        0.0,
        0.0,
        0.0,
        0.0,
        1.0
      ],
      "name": "b7d156508a21453491e8e3031d482dc0.fbx"
    },
    {
      "children": [
        3,
        5,
        7,
        10
      ],
      "name": "RootNode"
    },
    {
      "children": [
        4
      ],
      "matrix": [
        67.93163299560547,
        4.2285928706112805e-16,
        -5.928198519304245e-18,
        0.0,
        -3.7151313350955275e-16,
        59.6595034091503,
        -1.6731491989990153,
        0.0,
        -1.0127334988581904e-17,
        3.2531433441610784,
        115.99737581534512,
        0.0,
        115.87297821044922,
        19.219648361206055,
        -0.6545048356056213,
        1.0
      ],
      "name": "Ostrze"
    },
    {
      "mesh": 0,
      "name": "Ostrze__0"
    },
    {
      "children": [
        6
      ],
      "matrix": [
        88.34326934814453,
        0.0,
        0.0,
        0.0,
        0.0,
        88.33947848703862,
        -0.8184007312143995,
        0.0,
        0.0,
        0.8184007312143995,
        88.33947848703862,
        0.0,
        -407.68084716796875,
        0.0,
        0.0,
        1.0
      ],
      "name": "Raczka"
    },
    {
      "mesh": 1,
      "name": "Raczka_Raczka_mat_0"
    },
    {
      "children": [
        8
      ],
      "matrix": [
        -29.08647719990347,
        -5.518906457566863,
        -95.51711910171437,
        0.0,
        56.63930913109449,
        79.46723428563203,
        -21.83912397841966,
        0.0,
        77.11008775993375,
        -60.45246356562044,
        -19.98834696773717,
        0.0,
        407.6245422363281,
        -544.6593017578125,
        -1141.603515625,
        1.0
      ],
      "name": "Lamp"
    },
    {
      "children": [
        9
      ],
      "matrix": [
        1.0,
        0.0,
        0.0,
        0.0,
        0.0,
        2.220446049250313e-16,
        1.0,
        0.0,
        0.0,
        -1.0,
        2.220446049250313e-16,
        0.0,
        0.0,
        0.0,
        0.0,
        1.0
      ],
      "name": "Object_8"
    },
    {
      "name": "Object_9"
    },
    {
      "children": [
        11
      ],
      "matrix": [
        -65.48615898796433,
        -44.52453325786803,
        -61.0665941343716,
        0.0,
        -31.737007733719864,
        89.53432833071254,
        -31.24686209010388,
        0.0,
        68.58808439600038,
        -1.0816600839305441,
        -72.76334716290866,
        0.0,
        748.1131591796875,
        534.3665161132813,
        650.7639770507813,
        1.0
      ],
      "name": "Camera"
    },
    {
      "name": "Object_11"
    }
  ],
  "samplers": [
    {
      "magFilter": 9729,
      "minFilter": 9987,
      "wrapS": 10497,
      "wrapT": 10497
    }
  ],
  "scene": 0,
  "scenes": [
    {
      "name": "Sketchfab_Scene",
      "nodes": [
        0
      ]
    }
  ],
  "textures": [
    {
      "sampler": 0,
      "source": 0
    },
    {
      "sampler": 0,
      "source": 1
    },
    {
      "sampler": 0,
      "source": 2
    },
    {
      "sampler": 0,
      "source": 3
    },
    {
      "sampler": 0,
      "source": 4
    },
    {
      "sampler": 0,
      "source": 5
    }
  ]
}
