{
  "accessors": [
    {
      "bufferView": 2,
      "componentType": 5126,
      "count": 949,
      "max": [
        40.38033676147461,
        33.295196533203125,
        111.34396362304688
      ],
      "min": [
        -47.555301666259766,
        0.04254913330078125,
        -87.95399475097656
      ],
      "type": "VEC3"
    },
    {
      "bufferView": 2,
      "byteOffset": 11388,
      "componentType": 5126,
      "count": 949,
      "max": [
        0.9984263181686401,
        0.9999904632568359,
        0.9952730536460876
      ],
      "min": [
        -0.9948157668113708,
        -1.0,
        -0.9942724108695984
      ],
      "type": "VEC3"
    },
    {
      "bufferView": 3,
      "componentType": 5126,
      "count": 949,
      "max": [
        0.9896855354309082,
        0.9959352016448975,
        0.9973529577255249,
        1.0
      ],
      "min": [
        -0.9991391897201538,
        -0.9984120726585388,
        -0.9999830722808838,
        -1.0
      ],
      "type": "VEC4"
    },
    {
      "bufferView": 1,
      "componentType": 5126,
      "count": 949,
      "max": [
        0.98974609375,
        0.9900054931640625
      ],
      "min": [
        0.0099945068359375,
        0.0517578125
      ],
      "type": "VEC2"
    },
    {
      "bufferView": 1,
      "byteOffset": 7592,
      "componentType": 5126,
      "count": 949,
      "max": [
        0.927734375,
        0.9921875
      ],
      "min": [
        0.0078125,
        0.02978515625
      ],
      "type": "VEC2"
    },
    {
      "bufferView": 1,
      "byteOffset": 15184,
      "componentType": 5126,
      "count": 949,
      "max": [
        0.98974609375,
        0.9900054931640625
      ],
      "min": [
        0.0099945068359375,
        0.0517578125
      ],
      "type": "VEC2"
    },
    {
      "bufferView": 1,
      "byteOffset": 22776,
      "componentType": 5126,
      "count": 949,
      "max": [
        0.98974609375,
        0.9900054931640625
      ],
      "min": [
        0.0099945068359375,
        0.0517578125
      ],
      "type": "VEC2"
    },
    {
      "bufferView": 1,
      "byteOffset": 30368,
      "componentType": 5126,
      "count": 949,
      "max": [
        0.98974609375,
        0.9900054931640625
      ],
      "min": [
        0.0099945068359375,
        0.0517578125
      ],
      "type": "VEC2"
    },
    {
      "bufferView": 1,
      "byteOffset": 37960,
      "componentType": 5126,
      "count": 949,
      "max": [
        0.98974609375,
        0.9900054931640625
      ],
      "min": [
        0.0099945068359375,
        0.0517578125
      ],
      "type": "VEC2"
    },
    {
      "bufferView": 0,
      "componentType": 5125,
      "count": 4746,
      "type": "SCALAR"
    }
  ],
  "asset": {
    "extras": {
      "author": "AaronJC (https://sketchfab.com/AaronJC)",
      "license": "CC-BY-4.0 (http://creativecommons.org/licenses/by/4.0/)",
      "source": "https://sketchfab.com/3d-models/body-bag01-b29baa9d4ef54b5c96a32c6ce0584ea0",
      "title": "Body Bag01"
    },
    "generator": "Sketchfab-14.30.0",
    "version": "2.0"
  },
  "bufferViews": [
    {
      "buffer": 0,
      "byteLength": 18984,
      "name": "floatBufferViews",
      "target": 34963
    },
    {
      "buffer": 0,
      "byteLength": 45552,
      "byteOffset": 18984,
      "byteStride": 8,
      "name": "floatBufferViews",
      "target": 34962
    },
    {
      "buffer": 0,
      "byteLength": 22776,
      "byteOffset": 64536,
      "byteStride": 12,
      "name": "floatBufferViews",
      "target": 34962
    },
    {
      "buffer": 0,
      "byteLength": 15184,
      "byteOffset": 87312,
      "byteStride": 16,
      "name": "floatBufferViews",
      "target": 34962
    }
  ],
  "buffers": [
    {
      "byteLength": 102496,
      "uri": "scene.bin"
    }
  ],
  "images": [
    {
      "uri": "textures/BodyBad_baseColor.png"
    },
    {
      "uri": "textures/BodyBad_metallicRoughness.png"
    },
    {
      "uri": "textures/BodyBad_normal.png"
    }
  ],
  "materials": [
    {
      "doubleSided": true,
      "name": "BodyBad",
      "normalTexture": {
        "index": 2
      },
      "occlusionTexture": {
        "index": 1
      },
      "pbrMetallicRoughness": {
        "baseColorTexture": {
          "index": 0
        },
        "metallicRoughnessTexture": {
          "index": 1
        }
      }
    }
  ],
  "meshes": [
    {
      "name": "SM_Bodybag_1_LOD0_BodyBad_0",
      "primitives": [
        {
          "attributes": {
            "NORMAL": 1,
            "POSITION": 0,
            "TANGENT": 2,
            "TEXCOORD_0": 3,
            "TEXCOORD_1": 4,
            "TEXCOORD_2": 5,
            "TEXCOORD_3": 6,
            "TEXCOORD_4": 7,
            "TEXCOORD_5": 8
          },
          "indices": 9,
          "material": 0,
          "mode": 4
        }
      ]
    }
  ],
  "nodes": [
    {
      "children": [
        1
      ],
      "matrix": [
        1.0,
        0.0,
        0.0,
        0.0,
        0.0,
        2.220446049250313e-16,
        -1.0,
        0.0,
        0.0,
        1.0,
        2.220446049250313e-16,
        0.0,
        0.0,
        0.0,
        0.0,
        1.0
      ],
      "name": "Sketchfab_model"
    },
    {
      "children": [
        2
      ],
      "matrix": [
        1.0,
        0.0,
        0.0,
        0.0,
        0.0,
        0.0,
        1.0,
        0.0,
        0.0,
        -1.0,
        0.0,
        0.0,
        0.0,
        0.0,
        0.0,
        1.0
      ],
      "name": "BodyBad01.fbx"
    },
    {
      "children": [
        3
      ],
      "name": "RootNode"
    },
    {
      "children": [
        4
      ],
      "matrix": [
        0.009999999776482582,
        0.0,
        0.0,
        0.0,
        0.0,
        0.009999999776482582,
        0.0,
        0.0,
        0.0,
        0.0,
        0.009999999776482582,
        0.0,
        0.0,
        0.0,
        0.0,
        1.0
      ],
      "name": "SM_Bodybag_1_LOD0"
    },
    {
      "mesh": 0,
      "name": "SM_Bodybag_1_LOD0_BodyBad_0"
    }
  ],
  "samplers": [
    {
      "magFilter": 9729,
      "minFilter": 9987,
      "wrapS": 10497,
      "wrapT": 10497
    }
  ],
  "scene": 0,
  "scenes": [
    {
      "name": "Sketchfab_Scene",
      "nodes": [
        0
      ]
    }
  ],
  "textures": [
    {
      "sampler": 0,
      "source": 0
    },
    {
      "sampler": 0,
      "source": 1
    },
    {
      "sampler": 0,
      "source": 2
    }
  ]
}
